<?xml version="1.0" standalone="no"?><!DOCTYPE svg PUBLIC "-//W3C//DTD SVG 1.1//EN" "http://www.w3.org/Graphics/SVG/1.1/DTD/svg11.dtd"><svg t="1719727595237" class="icon" viewBox="0 0 1024 1024" version="1.1" xmlns="http://www.w3.org/2000/svg" p-id="6406" width="48" height="48" xmlns:xlink="http://www.w3.org/1999/xlink"><path d="M1011.338964 956.76211l-167.622329-167.622328A478.381055 478.381055 0 0 0 333.527492 22.990005a478.853452 478.853452 0 1 0 292.33523 911.963094 39.366446 39.366446 0 1 0-23.619868-74.953714 400.12056 400.12056 0 1 1 258.795018-503.260649 400.12056 400.12056 0 0 1-133.845918 437.125019 39.366446 39.366446 0 0 0 48.578195 61.962787c4.409042-3.464247 7.873289-7.873289 12.439797-11.573736l168.015993 168.330925a39.366446 39.366446 0 0 0 55.664155-55.664155z" fill="#3D3D3D" p-id="6407" data-spm-anchor-id="a313x.search_index.0.i23.4eed3a81rTF4GR" class="selected"></path><path d="M627.516113 335.087191m-59.04967 0a59.049669 59.049669 0 1 0 118.099339 0 59.049669 59.049669 0 1 0-118.099339 0Z" fill="#FFA280" p-id="6408"></path></svg>